<?xml version="1.0" encoding="UTF-8"?>
<svg xmlns="http://www.w3.org/2000/svg" xmlns:xlink="http://www.w3.org/1999/xlink" width="104pt" height="104pt" viewBox="0 0 104 104" version="1.1">
<defs>
<linearGradient id="linear0" gradientUnits="userSpaceOnUse" x1="21.58" y1="74.13" x2="48.77" y2="46.93" gradientTransform="matrix(1,0,0,-1,0,106)">
<stop offset="0.01" style="stop-color:rgb(98.431373%,85.490196%,23.529412%);stop-opacity:1;"/>
<stop offset="0.14" style="stop-color:rgb(97.254902%,82.352941%,18.823529%);stop-opacity:1;"/>
<stop offset="0.43" style="stop-color:rgb(95.686275%,76.862745%,10.980392%);stop-opacity:1;"/>
<stop offset="0.72" style="stop-color:rgb(94.509804%,73.72549%,5.882353%);stop-opacity:1;"/>
<stop offset="1" style="stop-color:rgb(94.117647%,72.54902%,4.313725%);stop-opacity:1;"/>
</linearGradient>
</defs>
<g id="surface1">
<path style=" stroke:none;fill-rule:nonzero;fill:url(#linear0);" d="M 48.710938 32.578125 L 20.859375 32.578125 L 20.859375 57.578125 L 50.269531 57.578125 L 50.269531 39.851562 C 50.273438 37.34375 49.738281 34.863281 48.710938 32.578125 Z M 30 41.730469 L 23.359375 41.730469 L 23.359375 35.078125 L 30 35.078125 Z M 30 41.730469 "/>
<path style=" stroke:none;fill-rule:nonzero;fill:rgb(0%,0%,0%);fill-opacity:1;" d="M 44.851562 52.078125 L 47.351562 52.078125 L 47.351562 54.578125 L 44.851562 54.578125 Z M 39.429688 52.078125 L 41.929688 52.078125 L 41.929688 54.578125 L 39.429688 54.578125 Z M 34.011719 52.078125 L 36.511719 52.078125 L 36.511719 54.578125 L 34.011719 54.578125 Z M 44.851562 46.558594 L 47.351562 46.558594 L 47.351562 49.058594 L 44.851562 49.058594 Z M 39.429688 46.558594 L 41.929688 46.558594 L 41.929688 49.058594 L 39.429688 49.058594 Z M 34.011719 46.558594 L 36.511719 46.558594 L 36.511719 49.058594 L 34.011719 49.058594 Z M 57.738281 63.03125 L 60.238281 63.03125 L 60.238281 65.53125 L 57.738281 65.53125 Z M 57.738281 68.449219 L 60.238281 68.449219 L 60.238281 70.949219 L 57.738281 70.949219 Z M 57.738281 68.449219 "/>
<path style=" stroke:none;fill-rule:nonzero;fill:rgb(0%,0%,0%);fill-opacity:1;" d="M 57.738281 63.03125 L 60.238281 63.03125 L 60.238281 65.53125 L 57.738281 65.53125 Z M 57.738281 73.871094 L 60.238281 73.871094 L 60.238281 76.371094 L 57.738281 76.371094 Z M 57.738281 73.871094 "/>
<path style=" stroke:none;fill-rule:nonzero;fill:rgb(0%,0%,0%);fill-opacity:1;" d="M 91.761719 60.121094 L 91.761719 39.851562 C 91.8125 28.867188 83.0625 19.863281 72.078125 19.601562 L 70.371094 19.601562 L 70.371094 22.101562 L 72 22.101562 C 81.628906 22.324219 89.304688 30.21875 89.261719 39.851562 L 89.261719 57.621094 L 52.769531 57.621094 L 52.769531 39.851562 C 52.761719 32.457031 48.730469 25.652344 42.25 22.089844 L 64.871094 22.089844 L 64.871094 46.558594 L 61.488281 46.558594 L 61.488281 49.058594 L 70.75 49.058594 L 70.75 46.558594 L 67.371094 46.558594 L 67.371094 15.339844 L 78 15.339844 L 78 6.5 L 64.871094 6.5 L 64.871094 19.589844 L 32.5 19.589844 C 21.316406 19.601562 12.25 28.664062 12.238281 39.851562 L 12.238281 54.621094 L 14.738281 54.621094 L 14.738281 39.851562 C 14.96875 30.203125 22.855469 22.5 32.503906 22.5 C 42.15625 22.5 50.042969 30.203125 50.269531 39.851562 L 50.269531 57.621094 L 12.269531 57.621094 L 12.269531 58.871094 C 12.289062 68.105469 18.554688 76.15625 27.5 78.449219 C 36.445312 80.742188 45.808594 76.695312 50.269531 68.609375 L 50.269531 95.089844 L 32.5 95.089844 L 32.5 97.589844 L 78 97.589844 L 78 95.089844 L 60.238281 95.089844 L 60.238281 79.300781 L 57.738281 79.300781 L 57.738281 95.089844 L 52.738281 95.089844 L 52.738281 60.089844 Z M 67.371094 9 L 75.511719 9 L 75.511719 12.839844 L 67.371094 12.839844 Z M 32.5 76.628906 C 23.179688 76.617188 15.449219 69.414062 14.78125 60.121094 L 50.21875 60.121094 C 49.554688 69.417969 41.820312 76.621094 32.5 76.628906 Z M 32.5 76.628906 "/>
</g>
</svg>
